<svg xmlns="http://www.w3.org/2000/svg" width="242.451" height="15.525" viewBox="0 0 242.451 15.525">
  <path id="Path_22" data-name="Path 22" d="M210.506-732.353c-1.208.617-2.9,2.558-2.9,3.352a9.381,9.381,0,0,1-1.812,2.293l-1.841,1.911H166.588c-26.777,0-37.792-.088-38.856-.353a5.617,5.617,0,0,0-2.962.059c-1.381.353-1.467.353-2.33-.382-1.064-.911-2.071-.97-2.847-.176a2.4,2.4,0,0,0-.058,3.029,2.253,2.253,0,0,0,2.847-.059c.575-.559,1.467-.559,41.071-.529l40.5.059.115.735c.288,1.97,2.272,3.205,5.119,3.234,2.962,0,4.631-.647,11.936-4.528a22.6,22.6,0,0,1,3.106-1.5,2.563,2.563,0,0,1-.345,1c-.69,1.323-.575,2.235.345,2.97,2.071,1.676,5.465-.853,5.177-3.852-.086-1.059-.058-1.147.661-1.147.805,0,2.56.559,2.56.794a3.716,3.716,0,0,1-.575.911,2.136,2.136,0,0,0-.518,1.382,2.767,2.767,0,0,1-.863,1.735c-1.035,1.206-1.093,1.441-.518,1.911.345.294.6.147,1.323-.647.834-.941,1.007-1,2.1-.853a4.8,4.8,0,0,1,2.013.823,3.022,3.022,0,0,0,1.726.706,3.1,3.1,0,0,1,1.352.294c.374.265.374.323,0,.588-.748.529-2.387.088-3.221-.882a2.81,2.81,0,0,0-1.237-.882c-.719,0-.489.882.518,1.911l.949.97h4.314c2.991,0,4.515-.118,5.033-.412a3.657,3.657,0,0,0,1.7-2.176c0-.559-.92-.294-1.467.412a3.273,3.273,0,0,1-3.02,1.235c-1.122-.294-.661-.882.892-1.088a2.639,2.639,0,0,0,1.9-.823,2.127,2.127,0,0,1,1.869-.735,1.921,1.921,0,0,1,2.128.941c.46.559.949.911,1.122.823.575-.382.316-1.411-.546-2.235a2.3,2.3,0,0,1-.863-1.852,2.173,2.173,0,0,0-.431-1.382,1.3,1.3,0,0,1-.431-.588c0-.323,1.639-.882,2.56-.882.719,0,.748.059.661,1.323a3.813,3.813,0,0,0,2.128,3.823,2.774,2.774,0,0,0,3.423-.529c.575-.823.546-1.323-.115-2.646a3.6,3.6,0,0,1-.431-1.088c.086,0,2.473,1.235,5.378,2.735,5.436,2.823,7.162,3.44,9.923,3.44s4.947-1.558,4.947-3.528v-.617l40.524.029c39.547.059,40.553.059,41.042.617a2.044,2.044,0,0,0,1.467.559,1.969,1.969,0,0,0,1.352-3.5,1.881,1.881,0,0,0-2.847.147c-.662.735-.748.764-2.157.412a9.434,9.434,0,0,0-3.8-.029c-1.582.235-13.978.323-38.971.323H276.341l-.661-.794a18.84,18.84,0,0,0-1.7-1.794,4.741,4.741,0,0,1-1.237-1.764,4.854,4.854,0,0,0-2.847-3.176c-1.208-.588-1.927-.706-4.2-.706-2.934,0-3.566.206-3.394,1.059.086.412.316.529.949.471,3.221-.294,4.918-.147,6.126.47.662.353,1.208.794,1.208.941s-.518,0-1.15-.323a8.3,8.3,0,0,0-5.235-.588c-1.668.647-2.3,3.293-1.179,4.881a6.893,6.893,0,0,0,4.8,2.205,5.819,5.819,0,0,0,4.429-1.911c.6-.794.661-.794,1.208-.294.834.764.978,1.529.4,2.146-2.3,2.382-4.573,2.058-11.447-1.529C254.942-729.413,250.6-730,246-727.678c-2.013,1-3.94,2.705-3.739,3.264.086.235-.374.912-1.035,1.558l-1.179,1.176-.978-1.147a4.112,4.112,0,0,1-.978-1.676c0-.676-1.7-2.146-3.71-3.175-4.573-2.382-8.772-1.764-16.94,2.44-6.586,3.381-8.168,3.617-10.843,1.441l-.777-.676.748-1.029a4.631,4.631,0,0,1,.949-1.029,2.571,2.571,0,0,1,.719.735c2.675,3.5,9.721,1.823,9.721-2.323a4.067,4.067,0,0,0-.431-1.852c-.978-1.411-3.969-1.588-6.673-.412l-1.381.617.863-.735a6.854,6.854,0,0,1,5.637-1.058c1.985.412,2.675.147,2.1-.794-.259-.412-.834-.5-3.308-.559C212.2-732.97,211.6-732.882,210.506-732.353Zm5.119,2.882c1.985,1.088-.345,3.822-3.25,3.822-1.294,0-2.962-.735-3.336-1.47-.23-.441-.086-.647.805-1.176C212.06-729.648,214.447-730.148,215.626-729.471Zm53.007.206a8.784,8.784,0,0,1,2.157,1.147l.805.676-.748.765c-1.409,1.47-4.544,1.294-6.126-.353C262.737-729.06,265.268-730.5,268.633-729.266Zm-14.438,4.381c1.323,1.235,1.582,2.47.518,2.47-1.323,0-2.876-2.5-2.042-3.323C252.929-726.031,252.958-726.031,254.195-724.885Zm-26.23,0a2.986,2.986,0,0,1-2.1,2.47c-.949,0-1.122-.412-.575-1.441C226.124-725.531,227.792-726.149,227.964-724.885Zm19.5,1.852a1.231,1.231,0,0,1-.92.324.638.638,0,0,1-.173-1.264C246.976-724.12,247.723-723.473,247.464-723.032Zm-12.971-.265c0,.529-.949.764-1.352.353a.545.545,0,0,1-.086-.647C233.343-724.061,234.493-723.826,234.493-723.3Zm2.157,1.823c0,.177-.2.147-.431-.059a1.264,1.264,0,0,1-.431-.647c0-.176.2-.147.431.059A1.264,1.264,0,0,1,236.65-721.474Zm7.766-.206c-.2.265-.431.382-.489.323-.2-.206.2-.764.547-.764C244.646-722.121,244.646-721.944,244.416-721.68Z" transform="translate(-119.024 733)" fill="#40382f"/>
</svg>
